<svg width="48" height="48" viewBox="0 0 48 48" fill="none" xmlns="http://www.w3.org/2000/svg">
<path d="M23.8055 22.7778C27.6102 22.7778 30.6944 19.6935 30.6944 15.8889C30.6944 12.0843 27.6102 9 23.8055 9C20.0009 9 16.9167 12.0843 16.9167 15.8889C16.9167 19.6935 20.0009 22.7778 23.8055 22.7778Z" fill="#1F3262" stroke="#1F3262" stroke-width="3"/>
<path d="M23.8055 26.2222C16.5326 26.2222 10.5759 31.8575 10.0635 38.9999C10.024 39.5508 10.4755 40 11.0278 40H36.5833C37.1356 40 37.5871 39.5508 37.5476 38.9999C37.0352 31.8575 31.0785 26.2222 23.8055 26.2222Z" fill="#1F3262"/>
<path d="M10.0635 38.9999L11.5597 39.1072L11.5597 39.1072L10.0635 38.9999ZM37.5476 38.9999L39.0437 38.8926L39.0437 38.8926L37.5476 38.9999ZM11.5597 39.1072C12.0161 32.7439 17.3251 27.7222 23.8055 27.7222V24.7222C15.7402 24.7222 9.1356 30.9711 8.56736 38.8926L11.5597 39.1072ZM23.8055 27.7222C30.286 27.7222 35.595 32.7439 36.0514 39.1072L39.0437 38.8926C38.4755 30.9711 31.8709 24.7222 23.8055 24.7222V27.7222ZM11.0278 41.5H36.5833V38.5H11.0278V41.5ZM8.56736 38.8926C8.46054 40.3816 9.67624 41.5 11.0278 41.5V38.5C11.2747 38.5 11.5875 38.7199 11.5597 39.1072L8.56736 38.8926ZM36.0514 39.1072C36.0236 38.7199 36.3364 38.5 36.5833 38.5V41.5C37.9349 41.5 39.1506 40.3816 39.0437 38.8926L36.0514 39.1072Z" fill="#1F3262"/>
<path d="M36.9246 23.6694C38.8353 23.6694 40.3843 22.1204 40.3843 20.2097C40.3843 18.299 38.8353 16.75 36.9246 16.75C35.0138 16.75 33.4649 18.299 33.4649 20.2097C33.4649 22.1204 35.0138 23.6694 36.9246 23.6694Z" fill="#1F3262" stroke="#1F3262" stroke-width="1.5"/>
<path d="M43.8262 31.8186C43.5699 28.2305 40.5779 25.3992 36.9246 25.3992C35.8692 25.3992 34.869 25.6355 33.974 26.0581C33.6414 26.2151 33.6333 26.6689 33.9307 26.8854C35.3829 27.9425 37.5647 29.8996 38.3778 31.9731C38.4575 32.1764 38.6486 32.3186 38.867 32.3186H43.344C43.6201 32.3186 43.8458 32.094 43.8262 31.8186Z" fill="#1F3262"/>
<path d="M43.8262 31.8186L44.5743 31.7651L44.5743 31.7651L43.8262 31.8186ZM33.974 26.0581L34.2942 26.7363L34.2942 26.7363L33.974 26.0581ZM33.9307 26.8854L33.4893 27.4917L33.4893 27.4917L33.9307 26.8854ZM38.3778 31.9731L39.076 31.6993L39.076 31.6993L38.3778 31.9731ZM36.9246 26.1492C40.1816 26.1492 42.8497 28.6736 43.0781 31.872L44.5743 31.7651C44.2902 27.7874 40.9742 24.6492 36.9246 24.6492V26.1492ZM34.2942 26.7363C35.0912 26.36 35.9822 26.1492 36.9246 26.1492V24.6492C35.7562 24.6492 34.6468 24.911 33.6538 25.3799L34.2942 26.7363ZM33.4893 27.4917C34.1857 27.9987 35.0572 28.722 35.8477 29.5621C36.6441 30.4084 37.3221 31.3353 37.6796 32.2469L39.076 31.6993C38.6204 30.5374 37.801 29.449 36.9401 28.5341C36.0733 27.613 35.1279 26.8292 34.3721 26.279L33.4893 27.4917ZM38.867 33.0686H43.344V31.5686H38.867V33.0686ZM37.6796 32.2469C37.8614 32.7104 38.312 33.0686 38.867 33.0686V31.5686C38.9852 31.5686 39.0537 31.6424 39.076 31.6993L37.6796 32.2469ZM33.6538 25.3799C32.7119 25.8246 32.8183 27.0032 33.4893 27.4917L34.3721 26.279C34.4322 26.3228 34.4688 26.3973 34.4655 26.4795C34.4618 26.5719 34.4036 26.6846 34.2942 26.7363L33.6538 25.3799ZM43.0781 31.872C43.0643 31.6786 43.2204 31.5686 43.344 31.5686V33.0686C44.0198 33.0686 44.6274 32.5094 44.5743 31.7651L43.0781 31.872Z" fill="#1F3262"/>
<path d="M4.01781 31.8186C4.27405 28.2305 7.26609 25.3992 10.9194 25.3992C11.9748 25.3992 12.975 25.6355 13.87 26.0581C14.2026 26.2151 14.2107 26.6689 13.9133 26.8854C12.4611 27.9425 10.2793 29.8996 9.46616 31.9731C9.38643 32.1764 9.19541 32.3186 8.97703 32.3186H4.50001C4.22387 32.3186 3.99814 32.094 4.01781 31.8186Z" fill="#1F3262"/>
<path d="M4.01781 31.8186L3.26971 31.7651L3.26971 31.7651L4.01781 31.8186ZM13.87 26.0581L13.5498 26.7363L13.5498 26.7363L13.87 26.0581ZM13.9133 26.8854L14.3547 27.4917L14.3547 27.4917L13.9133 26.8854ZM9.46616 31.9731L8.76793 31.6993L8.76793 31.6993L9.46616 31.9731ZM10.9194 26.1492C7.6624 26.1492 4.99432 28.6736 4.7659 31.872L3.26971 31.7651C3.55378 27.7874 6.86978 24.6492 10.9194 24.6492V26.1492ZM13.5498 26.7363C12.7528 26.36 11.8618 26.1492 10.9194 26.1492V24.6492C12.0878 24.6492 13.1972 24.911 14.1902 25.3799L13.5498 26.7363ZM14.3547 27.4917C13.6583 27.9987 12.7868 28.722 11.9963 29.5621C11.1999 30.4084 10.5219 31.3353 10.1644 32.2469L8.76793 31.6993C9.22357 30.5374 10.043 29.449 10.9039 28.5341C11.7706 27.613 12.7161 26.8292 13.4719 26.279L14.3547 27.4917ZM8.97703 33.0686H4.50001V31.5686H8.97703V33.0686ZM10.1644 32.2469C9.98262 32.7104 9.532 33.0686 8.97703 33.0686V31.5686C8.85883 31.5686 8.79024 31.6424 8.76793 31.6993L10.1644 32.2469ZM14.1902 25.3799C15.1321 25.8246 15.0257 27.0032 14.3547 27.4917L13.4719 26.279C13.4118 26.3228 13.3752 26.3973 13.3785 26.4795C13.3822 26.5719 13.4404 26.6846 13.5498 26.7363L14.1902 25.3799ZM4.7659 31.872C4.77971 31.6786 4.62357 31.5686 4.50001 31.5686V33.0686C3.82417 33.0686 3.21656 32.5094 3.26971 31.7651L4.7659 31.872Z" fill="#1F3262"/>
<path d="M10.8889 23.6389C8.98658 23.6389 7.44445 22.0968 7.44445 20.1944C7.44445 18.2921 8.98658 16.75 10.8889 16.75C12.7912 16.75 14.3333 18.2921 14.3333 20.1944C14.3333 22.0968 12.7912 23.6389 10.8889 23.6389Z" fill="#1F3262" stroke="#1F3262" stroke-width="1.3547"/>
</svg>
