<svg width="40" height="40" viewBox="0 0 48 48" fill="none" xmlns="http://www.w3.org/2000/svg">
<path fill-rule="evenodd" clip-rule="evenodd" d="M9.59582 11.8328H7.41463C7.14523 11.8328 6.92683 12.0512 6.92683 12.3206V16.223C6.92683 17.8541 8.07044 19.218 9.59957 19.5568C9.59707 19.447 9.59582 19.3369 9.59582 19.2265V11.8328ZM9.98676 22.5547C6.64946 22.3707 4 19.6063 4 16.223V12.3206C4 10.4347 5.52878 8.90593 7.41463 8.90593H9.65594C9.96344 7.25214 11.4139 6 13.1568 6H34.5226C36.2655 6 37.716 7.25214 38.0235 8.90593H40.5854C42.4712 8.90593 44 10.4347 44 12.3206V16.223C44 19.7147 41.178 22.5472 37.6904 22.5644C36.3109 28.3094 31.4499 32.6996 25.4634 33.3789V38.1742H30.3415C31.1497 38.1742 31.8049 38.8294 31.8049 39.6376C31.8049 40.4459 31.1497 41.1011 30.3415 41.1011H17.6585C16.8503 41.1011 16.1951 40.4459 16.1951 39.6376C16.1951 38.8294 16.8503 38.1742 17.6585 38.1742H22.5366V33.4116C16.4003 32.855 11.3876 28.4067 9.98676 22.5547ZM38.0785 19.6121C39.7662 19.4051 41.0732 17.9667 41.0732 16.223V12.3206C41.0732 12.0512 40.8548 11.8328 40.5854 11.8328H38.0836V19.2265C38.0836 19.3554 38.0819 19.4839 38.0785 19.6121ZM12.6481 9.56098C12.6481 9.28002 12.8758 9.05226 13.1568 9.05226H34.5226C34.8036 9.05226 35.0314 9.28002 35.0314 9.56098V19.2265C35.0314 25.4074 30.0207 30.4181 23.8397 30.4181C17.6587 30.4181 12.6481 25.4075 12.6481 19.2265V9.56098Z" fill="#1F3262"/>
</svg>
