<svg width="48" height="48" viewBox="0 0 48 48" fill="none" xmlns="http://www.w3.org/2000/svg">
<path d="M7.75154 13.9991L22.5254 5.55689C23.1293 5.21181 23.8707 5.21181 24.4746 5.55689L39.2485 13.9991C39.7132 14.2647 40 14.7589 40 15.2942C40 16.1179 39.3322 16.7857 38.5084 16.7857H8.49156C7.66779 16.7857 7 16.1179 7 15.2942C7 14.7589 7.28681 14.2647 7.75154 13.9991Z" fill="#1F3262"/>
<path d="M11.2429 31.3214V22.5214C11.2429 21.4366 12.1223 20.5571 13.2071 20.5571H13.9929C15.0777 20.5571 15.9571 21.4366 15.9571 22.5214V31.3214C15.9571 32.4063 15.0777 33.2857 13.9929 33.2857H13.2071C12.1223 33.2857 11.2429 32.4063 11.2429 31.3214Z" fill="#1F3262"/>
<path d="M21.1429 31.4V22.4429C21.1429 21.4014 21.9871 20.5571 23.0286 20.5571H24.4429C25.4843 20.5571 26.3286 21.4014 26.3286 22.4429V31.4C26.3286 32.4415 25.4843 33.2857 24.4429 33.2857H23.0286C21.9871 33.2857 21.1429 32.4415 21.1429 31.4Z" fill="#1F3262"/>
<path d="M31.5143 31.3214V22.5214C31.5143 21.4366 32.3937 20.5571 33.4786 20.5571H34.0286C35.1134 20.5571 35.9929 21.4366 35.9929 22.5214V31.3214C35.9929 32.4063 35.1134 33.2857 34.0286 33.2857H33.4786C32.3937 33.2857 31.5143 32.4063 31.5143 31.3214Z" fill="#1F3262"/>
<path d="M38.0357 42.7143H8.96429C7.87944 42.7143 7 41.8349 7 40.75V39.0214C7 37.9366 7.87944 37.0571 8.96429 37.0571H38.0357C39.1206 37.0571 40 37.9366 40 39.0214V40.75C40 41.8349 39.1206 42.7143 38.0357 42.7143Z" fill="#1F3262"/>
<path d="M22.5254 5.55689L21.8238 4.32895L21.8238 4.32895L22.5254 5.55689ZM7.75154 13.9991L7.04986 12.7712L7.04985 12.7712L7.75154 13.9991ZM39.2485 13.9991L38.5468 15.2271L38.5468 15.2271L39.2485 13.9991ZM24.4746 5.55689L25.1762 4.32895L25.1762 4.32895L24.4746 5.55689ZM21.8238 4.32895L7.04986 12.7712L8.45322 15.2271L23.2271 6.78483L21.8238 4.32895ZM8.49156 18.2H38.5084V15.3714H8.49156V18.2ZM39.9501 12.7712L25.1762 4.32895L23.7729 6.78483L38.5468 15.2271L39.9501 12.7712ZM9.82857 22.5214V31.3214H12.6571V22.5214H9.82857ZM13.2071 34.7H13.9929V31.8714H13.2071V34.7ZM17.3714 31.3214V22.5214H14.5429V31.3214H17.3714ZM13.9929 19.1429H13.2071V21.9714H13.9929V19.1429ZM19.7286 22.4429V31.4H22.5571V22.4429H19.7286ZM23.0286 34.7H24.4429V31.8714H23.0286V34.7ZM27.7429 31.4V22.4429H24.9143V31.4H27.7429ZM24.4429 19.1429H23.0286V21.9714H24.4429V19.1429ZM30.1 22.5214V31.3214H32.9286V22.5214H30.1ZM33.4786 34.7H34.0286V31.8714H33.4786V34.7ZM37.4071 31.3214V22.5214H34.5786V31.3214H37.4071ZM34.0286 19.1429H33.4786V21.9714H34.0286V19.1429ZM8.96429 44.1286H38.0357V41.3H8.96429V44.1286ZM41.4143 40.75V39.0214H38.5857V40.75H41.4143ZM38.0357 35.6429H8.96429V38.4714H38.0357V35.6429ZM5.58571 39.0214V40.75H8.41429V39.0214H5.58571ZM8.96429 35.6429C7.09835 35.6429 5.58571 37.1555 5.58571 39.0214H8.41429C8.41429 38.7177 8.66053 38.4714 8.96429 38.4714V35.6429ZM41.4143 39.0214C41.4143 37.1555 39.9016 35.6429 38.0357 35.6429V38.4714C38.3395 38.4714 38.5857 38.7177 38.5857 39.0214H41.4143ZM38.0357 44.1286C39.9016 44.1286 41.4143 42.6159 41.4143 40.75H38.5857C38.5857 41.0538 38.3395 41.3 38.0357 41.3V44.1286ZM8.96429 41.3C8.66053 41.3 8.41429 41.0538 8.41429 40.75H5.58571C5.58571 42.6159 7.09835 44.1286 8.96429 44.1286V41.3ZM37.4071 22.5214C37.4071 20.6555 35.8945 19.1429 34.0286 19.1429V21.9714C34.3323 21.9714 34.5786 22.2177 34.5786 22.5214H37.4071ZM34.0286 34.7C35.8945 34.7 37.4071 33.1874 37.4071 31.3214H34.5786C34.5786 31.6252 34.3323 31.8714 34.0286 31.8714V34.7ZM30.1 31.3214C30.1 33.1874 31.6126 34.7 33.4786 34.7V31.8714C33.1748 31.8714 32.9286 31.6252 32.9286 31.3214H30.1ZM32.9286 22.5214C32.9286 22.2177 33.1748 21.9714 33.4786 21.9714V19.1429C31.6126 19.1429 30.1 20.6555 30.1 22.5214H32.9286ZM27.7429 22.4429C27.7429 20.6203 26.2654 19.1429 24.4429 19.1429V21.9714C24.7032 21.9714 24.9143 22.1825 24.9143 22.4429H27.7429ZM24.4429 34.7C26.2654 34.7 27.7429 33.2225 27.7429 31.4H24.9143C24.9143 31.6604 24.7032 31.8714 24.4429 31.8714V34.7ZM19.7286 31.4C19.7286 33.2225 21.206 34.7 23.0286 34.7V31.8714C22.7682 31.8714 22.5571 31.6604 22.5571 31.4H19.7286ZM22.5571 22.4429C22.5571 22.1825 22.7682 21.9714 23.0286 21.9714V19.1429C21.206 19.1429 19.7286 20.6203 19.7286 22.4429H22.5571ZM17.3714 22.5214C17.3714 20.6555 15.8588 19.1429 13.9929 19.1429V21.9714C14.2966 21.9714 14.5429 22.2177 14.5429 22.5214H17.3714ZM13.9929 34.7C15.8588 34.7 17.3714 33.1874 17.3714 31.3214H14.5429C14.5429 31.6252 14.2966 31.8714 13.9929 31.8714V34.7ZM9.82857 31.3214C9.82857 33.1874 11.3412 34.7 13.2071 34.7V31.8714C12.9034 31.8714 12.6571 31.6252 12.6571 31.3214H9.82857ZM12.6571 22.5214C12.6571 22.2177 12.9034 21.9714 13.2071 21.9714V19.1429C11.3412 19.1429 9.82857 20.6555 9.82857 22.5214H12.6571ZM41.4143 15.2942C41.4143 14.2514 40.8555 13.2885 39.9501 12.7712L38.5468 15.2271C38.5709 15.2408 38.5857 15.2664 38.5857 15.2942H41.4143ZM38.5084 18.2C40.1133 18.2 41.4143 16.899 41.4143 15.2942H38.5857C38.5857 15.3368 38.5511 15.3714 38.5084 15.3714V18.2ZM5.58571 15.2942C5.58571 16.899 6.8867 18.2 8.49156 18.2V15.3714C8.44888 15.3714 8.41429 15.3368 8.41429 15.2942H5.58571ZM7.04985 12.7712C6.14447 13.2885 5.58571 14.2514 5.58571 15.2942H8.41429C8.41429 15.2664 8.42914 15.2408 8.45322 15.2271L7.04985 12.7712ZM23.2271 6.78484C23.3962 6.68821 23.6038 6.68821 23.7729 6.78484L25.1762 4.32895C24.1376 3.73541 22.8624 3.73541 21.8238 4.32895L23.2271 6.78484Z" fill="#1F3262"/>
</svg>
