<svg width="40" height="40" viewBox="0 0 48 48" fill="none" xmlns="http://www.w3.org/2000/svg">
<path fill-rule="evenodd" clip-rule="evenodd" d="M5 12.5C5 10.567 6.567 9 8.5 9H20.5C22.076 9 23.4972 9.66289 24.5 10.7251C25.5028 9.66289 26.924 9 28.5 9H40.5C42.433 9 44 10.567 44 12.5V33.5C44 35.433 42.433 37 40.5 37H28.5C27.5998 37 26.7501 36.7837 26 36.4003V37.7193C26 38.5477 25.3284 39.2193 24.5 39.2193C23.6716 39.2193 23 38.5477 23 37.7193V36.4003C22.2499 36.7837 21.4002 37 20.5 37H8.5C6.567 37 5 35.433 5 33.5V12.5ZM23 31.5V14.5C23 13.1193 21.8807 12 20.5 12H8.5C8.22386 12 8 12.2239 8 12.5V33.5C8 33.7761 8.22386 34 8.5 34H20.5C21.8807 34 23 32.8807 23 31.5ZM26 14.5V31.5C26 32.8807 27.1193 34 28.5 34H40.5C40.7761 34 41 33.7761 41 33.5V12.5C41 12.2239 40.7761 12 40.5 12H28.5C27.1193 12 26 13.1193 26 14.5ZM13.5 16C12.6716 16 12 16.6716 12 17.5C12 18.3284 12.6716 19 13.5 19H17.5C18.3284 19 19 18.3284 19 17.5C19 16.6716 18.3284 16 17.5 16H13.5ZM31.5 16C30.6716 16 30 16.6716 30 17.5C30 18.3284 30.6716 19 31.5 19H35.5C36.3284 19 37 18.3284 37 17.5C37 16.6716 36.3284 16 35.5 16H31.5ZM13.5 21.5C12.6716 21.5 12 22.1716 12 23C12 23.8284 12.6716 24.5 13.5 24.5H17.5C18.3284 24.5 19 23.8284 19 23C19 22.1716 18.3284 21.5 17.5 21.5H13.5ZM31.5 21.5C30.6716 21.5 30 22.1716 30 23C30 23.8284 30.6716 24.5 31.5 24.5H35.5C36.3284 24.5 37 23.8284 37 23C37 22.1716 36.3284 21.5 35.5 21.5H31.5ZM13.5 27C12.6716 27 12 27.6716 12 28.5C12 29.3284 12.6716 30 13.5 30H17.5C18.3284 30 19 29.3284 19 28.5C19 27.6716 18.3284 27 17.5 27H13.5ZM31.5 27C30.6716 27 30 27.6716 30 28.5C30 29.3284 30.6716 30 31.5 30H35.5C36.3284 30 37 29.3284 37 28.5C37 27.6716 36.3284 27 35.5 27H31.5Z" fill="#1F3262"/>
</svg>
