<svg width="48" height="48" viewBox="0 0 48 48" fill="none" xmlns="http://www.w3.org/2000/svg">
<path d="M24.3694 5.5C24.3694 5.5 37.8695 7.50006 39.8695 10.5C40.9279 12.0876 41.3257 21.237 37.8694 29.5C34.7947 36.8508 26.8694 43 24.3694 43C21.3694 43 13.9643 36.3508 10.8695 29C7.39058 20.737 7.54645 12.0876 8.8695 10.5C11.3695 7.50006 24.3694 5.5 24.3694 5.5Z" fill="#1F3262"/>
<path d="M39.8695 10.5L38.6214 11.3321L38.6214 11.3321L39.8695 10.5ZM24.3694 5.5L24.5893 4.0162L24.3652 3.983L24.1414 4.01744L24.3694 5.5ZM8.8695 10.5L10.0218 11.4603L10.0218 11.4603L8.8695 10.5ZM10.8695 29L9.48703 29.5821L9.48703 29.5821L10.8695 29ZM37.8694 29.5L36.4856 28.9212L36.4856 28.9212L37.8694 29.5ZM41.1176 9.66799C40.6916 9.02903 40.0489 8.53265 39.4102 8.14317C38.7503 7.74079 37.9732 7.38041 37.1537 7.05755C35.5137 6.41149 33.5625 5.86131 31.7215 5.4169C29.8719 4.97045 28.0917 4.62092 26.7769 4.3833C26.1184 4.2643 25.5744 4.17295 25.1937 4.11117C25.0034 4.08028 24.8538 4.05675 24.751 4.04085C24.6996 4.03289 24.6599 4.02684 24.6327 4.02272C24.6191 4.02067 24.6086 4.01909 24.6014 4.018C24.5977 4.01746 24.5949 4.01703 24.5929 4.01673C24.5919 4.01658 24.5911 4.01646 24.5905 4.01637C24.5902 4.01633 24.5899 4.01628 24.5897 4.01626C24.5895 4.01622 24.5893 4.0162 24.3694 5.5C24.1496 6.9838 24.1495 6.98379 24.1495 6.98379C24.1495 6.98379 24.1496 6.9838 24.1497 6.98381C24.1499 6.98384 24.1503 6.98391 24.1509 6.984C24.1522 6.98419 24.1542 6.98449 24.1571 6.98492C24.1628 6.98578 24.1717 6.98712 24.1837 6.98893C24.2077 6.99257 24.2441 6.99811 24.2921 7.00554C24.3881 7.0204 24.5304 7.04277 24.7131 7.07242C25.0786 7.13174 25.6048 7.22008 26.2433 7.33547C27.5223 7.56661 29.2421 7.90459 31.0175 8.33315C32.8015 8.76376 34.6003 9.27608 36.0541 9.84877C36.7814 10.1353 37.3872 10.4233 37.8484 10.7046C38.3307 10.9987 38.5474 11.221 38.6214 11.3321L41.1176 9.66799ZM24.3694 5.5C24.1414 4.01744 24.1412 4.01747 24.1409 4.01751C24.1408 4.01753 24.1405 4.01758 24.1402 4.01762C24.1396 4.01771 24.1388 4.01783 24.1378 4.01799C24.1359 4.01829 24.1331 4.01871 24.1296 4.01926C24.1226 4.02036 24.1124 4.02194 24.0993 4.024C24.073 4.02813 24.0347 4.03419 23.9851 4.04215C23.8859 4.05808 23.7414 4.08162 23.5574 4.11254C23.1895 4.17435 22.6631 4.26574 22.0244 4.38477C20.7487 4.62248 19.0163 4.97202 17.1992 5.41832C15.3891 5.86292 13.4596 6.41205 11.8034 7.05477C10.2295 7.66554 8.61265 8.4652 7.71718 9.53974L10.0218 11.4603C10.3764 11.0349 11.322 10.4595 12.8887 9.85156C14.3731 9.27552 16.1624 8.76215 17.9148 8.33173C19.6602 7.90302 21.334 7.56505 22.5739 7.334C23.193 7.21865 23.7017 7.13034 24.0545 7.07106C24.2309 7.04143 24.3681 7.01907 24.4606 7.00424C24.5068 6.99682 24.5418 6.99128 24.5649 6.98766C24.5764 6.98585 24.5849 6.98451 24.5904 6.98366C24.5932 6.98323 24.5951 6.98293 24.5963 6.98275C24.5969 6.98265 24.5973 6.98259 24.5975 6.98256C24.5976 6.98254 24.5976 6.98254 24.5977 6.98254C24.5976 6.98254 24.5975 6.98256 24.3694 5.5ZM7.71718 9.53974C7.36701 9.95993 7.14765 10.4868 6.99882 10.972C6.84233 11.4822 6.72675 12.0719 6.64634 12.7113C6.48529 13.9917 6.45205 15.5795 6.57221 17.3484C6.81258 20.8872 7.67584 25.2802 9.48703 29.5821L12.252 28.4179C10.5842 24.4568 9.78597 20.3937 9.56531 17.1451C9.45495 15.5204 9.49132 14.1317 9.62289 13.0856C9.68878 12.5617 9.77526 12.1506 9.86695 11.8517C9.96629 11.5278 10.0412 11.437 10.0218 11.4603L7.71718 9.53974ZM9.48703 29.5821C11.1276 33.4787 13.8817 37.1377 16.6009 39.8237C17.9639 41.17 19.3506 42.3042 20.6265 43.1131C21.8385 43.8814 23.1707 44.5 24.3694 44.5V41.5C24.0682 41.5 23.3498 41.2874 22.2328 40.5793C21.1798 39.9118 19.9593 38.9242 18.7092 37.6894C16.2021 35.213 13.7062 31.8721 12.252 28.4179L9.48703 29.5821ZM24.3694 44.5C24.9534 44.5 25.5531 44.3295 26.0923 44.1165C26.6534 43.8948 27.2568 43.5833 27.8776 43.2077C29.1205 42.4557 30.5203 41.3937 31.9178 40.112C34.701 37.5595 37.6075 34.0134 39.2533 30.0788L36.4856 28.9212C35.0567 32.3374 32.4632 35.5412 29.8901 37.901C28.6094 39.0755 27.367 40.0103 26.3246 40.641C25.8028 40.9567 25.3529 41.183 24.9901 41.3263C24.6053 41.4783 24.4105 41.5 24.3694 41.5V44.5ZM39.2533 30.0788C41.0605 25.7582 41.8523 21.2317 42.0601 17.582C42.1641 15.755 42.1233 14.12 41.9807 12.8138C41.9095 12.1617 41.8106 11.5703 41.6837 11.0667C41.5647 10.5944 41.3925 10.0804 41.1176 9.66798L38.6214 11.3321C38.6111 11.3166 38.6829 11.4358 38.7747 11.7999C38.8586 12.1329 38.9375 12.5813 38.9984 13.1394C39.12 14.2534 39.1612 15.7199 39.0649 17.4115C38.8721 20.7992 38.1347 24.9788 36.4856 28.9212L39.2533 30.0788Z" fill="#1F3262"/>
<path d="M20.4983 21.0122C19.9528 20.3888 19.0051 20.3256 18.3817 20.8711C17.7582 21.4167 17.6951 22.3643 18.2406 22.9878L20.4983 21.0122ZM22.8694 26L21.7406 26.9878L22.7964 28.1944L23.9301 27.0607L22.8694 26ZM31.9301 19.0607C32.5159 18.4749 32.5159 17.5251 31.9301 16.9393C31.3443 16.3536 30.3946 16.3536 29.8088 16.9393L31.9301 19.0607ZM18.2406 22.9878L21.7406 26.9878L23.9983 25.0122L20.4983 21.0122L18.2406 22.9878ZM23.9301 27.0607L31.9301 19.0607L29.8088 16.9393L21.8088 24.9393L23.9301 27.0607Z" fill="white"/>
</svg>
