<svg width="45" height="40" viewBox="0 0 48 48" fill="none" xmlns="http://www.w3.org/2000/svg">
<path d="M25.2607 11.1132H23.7607H25.2607ZM23.9679 14.5147L22.8476 13.5173L23.9679 14.5147ZM33.4594 31.4954L32.4509 32.6057L33.4594 31.4954ZM16.8109 41.8048L15.8051 42.9176L16.8109 41.8048ZM33.4594 23.9191L34.468 25.0295L33.4594 23.9191ZM6.19182 30.1171L5.11315 31.1594L6.19182 30.1171ZM23.6556 41.8048L22.6497 40.6921L23.6556 41.8048ZM16.3371 14.5148L15.2167 15.5121L16.3371 14.5148ZM20.1525 4.5C16.5013 4.5 13.5443 7.46214 13.5443 11.1133H16.5443C16.5443 9.11617 18.161 7.5 20.1525 7.5V4.5ZM13.5443 11.1133C13.5443 12.8 14.1768 14.3437 15.2167 15.5121L17.4576 13.5174C16.8886 12.8783 16.5443 12.0379 16.5443 11.1133H13.5443ZM16.2571 13.1991H6.75003V16.1991H16.2571V13.1991ZM4.50003 15.4491V22.9369H7.50003V15.4491H4.50003ZM7.27054 24.0537C7.92923 23.372 8.8481 22.951 9.8653 22.951V19.951C7.99966 19.951 6.31237 20.728 5.11317 21.9691L7.27054 24.0537ZM9.8653 22.951C11.8568 22.951 13.4735 24.5672 13.4735 26.5642H16.4735C16.4735 22.9131 13.5164 19.951 9.8653 19.951V22.951ZM13.4735 26.5642C13.4735 28.5613 11.8568 30.1774 9.86527 30.1774V33.1774C13.5164 33.1774 16.4735 30.2154 16.4735 26.5642H13.4735ZM9.86527 30.1774C8.84809 30.1774 7.92921 29.7564 7.2705 29.0748L5.11315 31.1594C6.31238 32.4005 7.99966 33.1774 9.86527 33.1774V30.1774ZM4.5 30.1916V40.9412H7.5V30.1916H4.5ZM7.05882 43.5001H16.739V40.5001H7.05882V43.5001ZM17.8167 40.692C17.0829 40.0287 16.6251 39.0741 16.6251 38.0096H13.6251C13.6251 39.9574 14.4685 41.7095 15.8051 42.9176L17.8167 40.692ZM16.6251 38.0096C16.6251 36.0124 18.2417 34.3963 20.2333 34.3963V31.3963C16.5821 31.3963 13.6251 34.3583 13.6251 38.0096H16.6251ZM20.2333 34.3963C22.2248 34.3963 23.8415 36.0125 23.8415 38.0095H26.8415C26.8415 34.3585 23.8844 31.3963 20.2333 31.3963V34.3963ZM23.8415 38.0095C23.8415 39.074 23.3836 40.0287 22.6497 40.6921L24.6615 42.9176C25.998 41.7094 26.8415 39.9574 26.8415 38.0095H23.8415ZM23.7275 43.5001H32.5241V40.5001H23.7275V43.5001ZM34.7741 41.2501V31.5747H31.7741V41.2501H34.7741ZM32.4509 32.6057C33.6234 33.6707 35.1838 34.3205 36.8918 34.3205V31.3205C35.9575 31.3205 35.1093 30.9676 34.468 30.385L32.4509 32.6057ZM36.8918 34.3205C40.543 34.3205 43.5 31.3584 43.5 27.7073H40.5C40.5 29.7043 38.8833 31.3205 36.8918 31.3205V34.3205ZM43.5 27.7073C43.5 24.056 40.5429 21.094 36.8918 21.094V24.094C38.8833 24.094 40.5 25.7101 40.5 27.7073H43.5ZM36.8918 21.094C35.1838 21.094 33.6234 21.7439 32.4509 22.8088L34.468 25.0295C35.1093 24.4469 35.9576 24.094 36.8918 24.094V21.094ZM34.7741 23.8398V15.4491H31.7741V23.8398H34.7741ZM32.5241 13.1991H24.0479V16.1991H32.5241V13.1991ZM25.0882 15.5122C26.1286 14.3436 26.7607 12.8 26.7607 11.1132H23.7607C23.7607 12.0382 23.4165 12.8782 22.8476 13.5173L25.0882 15.5122ZM26.7607 11.1132C26.7607 7.46208 23.8036 4.5 20.1525 4.5V7.5C22.144 7.5 23.7607 9.11617 23.7607 11.1132L26.7607 11.1132ZM24.0479 13.1991C25.3223 13.1991 25.8376 14.6704 25.0882 15.5122L22.8476 13.5173C21.9733 14.4992 22.5857 16.1991 24.0479 16.1991V13.1991ZM34.7741 31.5747C34.7741 32.8574 33.2887 33.3666 32.4509 32.6057L34.468 30.385C33.4904 29.4972 31.7741 30.1031 31.7741 31.5747H34.7741ZM34.7741 15.4491C34.7741 14.2064 33.7667 13.1991 32.5241 13.1991V16.1991C32.1099 16.1991 31.7741 15.8633 31.7741 15.4491H34.7741ZM16.739 43.5001C18.3093 43.5001 18.837 41.6143 17.8167 40.692L15.8051 42.9176C14.9331 42.1295 15.3687 40.5001 16.739 40.5001V43.5001ZM32.4509 22.8088C33.2887 22.0479 34.7741 22.5571 34.7741 23.8398H31.7741C31.7741 25.3114 33.4904 25.9174 34.468 25.0295L32.4509 22.8088ZM4.5 40.9412C4.5 42.3544 5.64562 43.5001 7.05882 43.5001V40.5001C7.30248 40.5001 7.5 40.6976 7.5 40.9412H4.5ZM32.5241 43.5001C33.7667 43.5001 34.7741 42.4927 34.7741 41.2501H31.7741C31.7741 40.8358 32.1099 40.5001 32.5241 40.5001V43.5001ZM4.50003 22.9369C4.50003 24.4724 6.32714 25.03 7.27054 24.0537L5.11317 21.9691C5.92027 21.1338 7.50003 21.5975 7.50003 22.9369H4.50003ZM7.2705 29.0748C6.32709 28.0985 4.5 28.6561 4.5 30.1916H7.5C7.5 31.5309 5.92026 31.9947 5.11315 31.1594L7.2705 29.0748ZM22.6497 40.6921C21.6294 41.6143 22.1572 43.5001 23.7275 43.5001V40.5001C25.0978 40.5001 25.5334 42.1294 24.6615 42.9176L22.6497 40.6921ZM6.75003 13.1991C5.50739 13.1991 4.50003 14.2065 4.50003 15.4491H7.50003C7.50003 15.8633 7.16424 16.1991 6.75003 16.1991V13.1991ZM15.2167 15.5121C14.4674 14.6703 14.9828 13.1991 16.2571 13.1991V16.1991C17.7192 16.1991 18.3317 14.4995 17.4576 13.5174L15.2167 15.5121Z" fill="#1F3262"/>
</svg>
