<svg width="40" height="40" viewBox="0 0 48 48" fill="none" xmlns="http://www.w3.org/2000/svg">
<path d="M24 22C28.4183 22 32 18.4183 32 14C32 9.58172 28.4183 6 24 6C19.5817 6 16 9.58172 16 14C16 18.4183 19.5817 22 24 22Z" stroke="#1F3262" stroke-width="3"/>
<path d="M38.5 42C38.5 42.8284 39.1716 43.5 40 43.5C40.8284 43.5 41.5 42.8284 41.5 42H38.5ZM6.5 42C6.5 42.8284 7.17157 43.5 8 43.5C8.82843 43.5 9.5 42.8284 9.5 42H6.5ZM9.5 42C9.5 33.9919 15.9919 27.5 24 27.5V24.5C14.335 24.5 6.5 32.335 6.5 42H9.5ZM24 27.5C32.0081 27.5 38.5 33.9919 38.5 42H41.5C41.5 32.335 33.665 24.5 24 24.5V27.5Z" fill="#1F3262"/>
</svg>
