<svg width="40" height="40" viewBox="0 0 48 48" fill="none" xmlns="http://www.w3.org/2000/svg">
<path d="M6.69287 24.5926L5.63168 23.5325L5.62305 23.5411L5.61456 23.5499L6.69287 24.5926ZM22.6491 8.62043L23.7103 9.68056L23.7194 9.67147L23.7283 9.66223L22.6491 8.62043ZM24.057 8L24.1154 6.50113L24.057 6.49886L23.9987 6.50113L24.057 8ZM25.4649 8.62043L24.3832 9.65956L24.3934 9.67016L24.4037 9.68056L25.4649 8.62043ZM41.4192 24.5906L42.4975 23.5479L42.489 23.5391L42.4804 23.5305L41.4192 24.5906ZM41.3019 24.58H38.3913V27.58H41.3019V24.58ZM36.477 26.4943V38.0114H39.477V26.4943H36.477ZM36.477 38.0114C36.477 38.1281 36.4638 38.2289 36.443 38.3064C36.4225 38.3827 36.4004 38.4157 36.394 38.424C36.393 38.4254 36.3905 38.432 36.3615 38.445C36.3262 38.4609 36.2172 38.5 35.9884 38.5V41.5C37.1718 41.5 38.1452 41.0694 38.7735 40.2511C39.3471 39.5041 39.477 38.6339 39.477 38.0114H36.477ZM35.9884 38.5H28.8627V41.5H35.9884V38.5ZM29.5342 39.1714V28.4829H26.5342V39.1714H29.5342ZM27.6199 26.5686H20.4942V29.5686H27.6199V26.5686ZM18.5799 28.4829V39.1714H21.5799V28.4829H18.5799ZM19.2513 38.5H12.1256V41.5H19.2513V38.5ZM12.1256 38.5C11.8969 38.5 11.7879 38.4609 11.7525 38.445C11.7235 38.432 11.7211 38.4254 11.72 38.424C11.7136 38.4157 11.6915 38.3827 11.6711 38.3064C11.6502 38.2289 11.6371 38.1281 11.6371 38.0114H8.63707C8.63707 38.6339 8.76699 39.5041 9.34058 40.2511C9.9689 41.0694 10.9423 41.5 12.1256 41.5V38.5ZM11.6371 38.0114V26.4943H8.63707V38.0114H11.6371ZM9.72278 24.58H6.81219V27.58H9.72278V24.58ZM6.81219 24.58C6.59447 24.58 6.70301 24.5408 6.91337 24.6593C7.04526 24.7336 7.22279 24.8746 7.35222 25.1107C7.48235 25.3481 7.50843 25.5805 7.49784 25.7475C7.4881 25.901 7.44842 25.9992 7.43752 26.0246C7.425 26.0538 7.42218 26.0519 7.4464 26.0158C7.49715 25.94 7.59888 25.8135 7.77119 25.6353L5.61456 23.5499C5.37921 23.7933 5.14338 24.0634 4.95425 24.3457C4.7896 24.5914 4.53783 25.022 4.50386 25.5575C4.48482 25.8577 4.53377 26.2102 4.72154 26.5527C4.90861 26.894 5.17854 27.1253 5.44105 27.2731C5.91266 27.5388 6.43532 27.58 6.81219 27.58V24.58ZM7.75406 25.6527L23.7103 9.68056L21.5879 7.5603L5.63168 23.5325L7.75406 25.6527ZM23.7283 9.66223C23.8224 9.56472 23.9532 9.50517 24.1154 9.49887L23.9987 6.50113C23.1387 6.5346 22.2513 6.87276 21.5699 7.57864L23.7283 9.66223ZM23.9987 9.49887C24.1643 9.50531 24.2922 9.56487 24.3832 9.65956L26.5467 7.5813C25.8621 6.86864 24.9719 6.53446 24.1154 6.50113L23.9987 9.49887ZM24.4037 9.68056L40.358 25.6507L42.4804 23.5305L26.5261 7.5603L24.4037 9.68056ZM40.3409 25.6334C40.5138 25.8121 40.616 25.9392 40.6671 26.0154C40.6915 26.0517 40.6888 26.0539 40.6764 26.0249C40.6656 25.9998 40.6259 25.9019 40.6161 25.7485C40.6053 25.5818 40.6311 25.3493 40.7612 25.1116C40.8905 24.8752 41.0682 24.7339 41.2003 24.6594C41.4109 24.5407 41.5197 24.58 41.3019 24.58V27.58C41.6786 27.58 42.2016 27.5388 42.6733 27.2729C42.936 27.1248 43.206 26.8933 43.393 26.5516C43.5806 26.2087 43.6292 25.8561 43.6099 25.556C43.5754 25.0207 43.3235 24.5902 43.1587 24.3444C42.9693 24.0621 42.7332 23.7916 42.4975 23.5479L40.3409 25.6334ZM11.6371 26.4943C11.6371 25.4371 10.78 24.58 9.72278 24.58V27.58C9.12316 27.58 8.63707 27.0939 8.63707 26.4943H11.6371ZM18.5799 39.1714C18.5799 38.8006 18.8805 38.5 19.2513 38.5V41.5C20.5374 41.5 21.5799 40.4575 21.5799 39.1714H18.5799ZM29.5342 28.4829C29.5342 27.4257 28.6771 26.5686 27.6199 26.5686V29.5686C27.0203 29.5686 26.5342 29.0825 26.5342 28.4829H29.5342ZM28.8627 38.5C29.2336 38.5 29.5342 38.8006 29.5342 39.1714H26.5342C26.5342 40.4575 27.5767 41.5 28.8627 41.5V38.5ZM20.4942 26.5686C19.437 26.5686 18.5799 27.4257 18.5799 28.4829H21.5799C21.5799 29.0825 21.0938 29.5686 20.4942 29.5686V26.5686ZM38.3913 24.58C37.334 24.58 36.477 25.4371 36.477 26.4943H39.477C39.477 27.094 38.9909 27.58 38.3913 27.58V24.58Z" fill="#1F3262"/>
</svg>
