<svg width="48" height="48" viewBox="0 0 48 48" fill="none" xmlns="http://www.w3.org/2000/svg">
<path fill-rule="evenodd" clip-rule="evenodd" d="M43 4.2828C42.6229 3.90573 42.0116 3.90573 41.6345 4.2828L28.5169 17.4005C28.1398 17.7775 27.5285 17.7775 27.1514 17.4005L25.9947 16.2438C25.9846 16.2336 25.9788 16.2198 25.9788 16.2055V16.2055C25.9788 16.1911 25.9731 16.1773 25.963 16.1671L25.9339 16.1381C25.007 15.3126 23.7948 14.9157 22.6289 14.9157C21.4645 14.9157 20.3377 15.3502 19.4614 16.2279L19.2355 16.4089L18.5113 17.1331L18.0131 17.5401L4.79726 27.8144L4.35256 28.1798C3.91184 28.542 3.87946 29.2052 4.28281 29.6086L8.57799 33.9037C8.61299 33.9387 8.67025 33.9361 8.7056 33.9014V33.9014L15.7019 27.0421C16.0826 26.6687 16.694 26.6748 17.0673 27.0556L17.7432 27.745C18.1166 28.1258 18.1105 28.7371 17.7297 29.1104L10.7335 35.9698V35.9698C10.7091 35.9937 10.7075 36.0332 10.7316 36.0574L12.0489 37.3747C12.4301 37.7559 13.0496 37.7511 13.4248 37.3641L17.7998 32.8525C18.171 32.4697 18.7823 32.4603 19.1651 32.8315L19.8583 33.5037C20.2411 33.8749 20.2505 34.4862 19.8793 34.869L15.4526 39.4339C15.0854 39.8126 15.0901 40.4158 15.4631 40.7888L18.3914 43.7172C18.7948 44.1205 19.458 44.0882 19.8202 43.6474L20.1856 43.2027L30.3943 30.1033C30.4052 30.0893 30.426 30.0884 30.4381 30.1013V30.1013C30.4492 30.1132 30.468 30.1135 30.4795 30.102L31.8906 28.6909C31.901 28.6805 31.915 28.6747 31.9297 28.6747V28.6747C31.9447 28.6747 31.959 28.6686 31.9694 28.6579L31.998 28.6284C33.6491 26.7673 33.6621 23.9112 31.9082 22.1573L30.5995 20.8486C30.2225 20.4715 30.2225 19.8602 30.5995 19.4831L43.7172 6.36548C44.0943 5.98841 44.0943 5.37706 43.7172 4.99999L43 4.2828ZM22.6303 17.8124C23.1075 17.8027 23.5725 17.9628 23.9425 18.2642C23.9501 18.2698 23.9571 18.2779 23.964 18.286V18.286C23.9782 18.3028 23.9952 18.317 24.0108 18.3325L29.8719 24.1936C30.415 24.7367 30.4657 25.891 29.8719 26.6384C29.8602 26.6523 29.8544 26.6677 29.8486 26.6832C29.8483 26.684 29.848 26.6848 29.8477 26.6856C29.8363 26.7156 29.8136 26.739 29.7898 26.7604V26.7604C29.5565 26.9705 29.1997 26.9612 28.9777 26.7392L21.4978 19.2606C21.2226 18.9855 21.2226 18.5394 21.4978 18.2642V18.2642C21.7758 17.9876 22.1828 17.8239 22.6289 17.8124H22.6303Z" fill="#1F3262"/>
</svg>
