<svg width="40" height="40" viewBox="0 0 48 48" fill="none" xmlns="http://www.w3.org/2000/svg">
<path d="M24 22C28.4183 22 32 18.4183 32 14C32 9.58172 28.4183 6 24 6C19.5817 6 16 9.58172 16 14C16 18.4183 19.5817 22 24 22Z" fill="#FF9E0F" stroke="#FF9E0F" stroke-width="3.14639"/>
<path d="M24 26C15.4994 26 8.54704 32.6292 8.03075 40.9998C7.99675 41.5511 8.44772 42 9 42H39C39.5523 42 40.0032 41.5511 39.9692 40.9998C39.453 32.6292 32.5006 26 24 26Z" fill="#FF9E0F"/>
<path d="M8.03075 40.9998L9.60096 41.0967L8.03075 40.9998ZM39.9692 40.9998L41.5395 40.903L41.5395 40.903L39.9692 40.9998ZM9.60096 41.0967C10.0664 33.5505 16.3358 27.5732 24 27.5732V24.4268C14.6629 24.4268 7.02768 31.7078 6.46054 40.903L9.60096 41.0967ZM24 27.5732C31.6642 27.5732 37.9336 33.5505 38.399 41.0967L41.5395 40.903C40.9723 31.7078 33.3371 24.4268 24 24.4268V27.5732ZM9 43.5732H39V40.4268H9V43.5732ZM6.46054 40.903C6.36684 42.4221 7.60484 43.5732 9 43.5732V40.4268C9.29059 40.4268 9.62667 40.68 9.60096 41.0967L6.46054 40.903ZM38.399 41.0967C38.3733 40.68 38.7094 40.4268 39 40.4268V43.5732C40.3952 43.5732 41.6332 42.4222 41.5395 40.903L38.399 41.0967Z" fill="#FF9E0F"/>
</svg>
