<svg width="45" height="40" viewBox="0 0 48 48" fill="none" xmlns="http://www.w3.org/2000/svg">
<mask id="path-1-inside-1_72_1773" fill="white">
<path d="M19.725 4C16.5902 4 14.0493 6.5435 14.0493 9.6814C14.0493 11.2331 14.6701 12.6403 15.6773 13.6657H4.83343C4.37319 13.6657 4.00009 14.0388 4.00009 14.499V20.8969C4.00009 21.6688 5.06419 22.1144 5.75399 21.768C6.51861 21.3841 7.38174 21.1678 8.29483 21.1678C11.4296 21.1678 13.9706 23.7112 13.9706 26.8491C13.9706 29.987 11.4296 32.5304 8.2948 32.5304C7.3817 32.5304 6.51856 32.3141 5.75392 31.9301C5.06413 31.5838 4.00006 32.0294 4.00006 32.8013V44H13.8974C14.6844 44 15.1376 42.8797 14.7749 42.1812C14.3686 41.3985 14.139 40.5093 14.139 39.5661C14.139 36.4281 16.68 33.8848 19.8148 33.8848C22.9496 33.8848 25.4905 36.4283 25.4905 39.5661C25.4905 40.5093 25.2609 41.3986 24.8545 42.1813C24.4919 42.8798 24.9449 44 25.7319 44H33.4712C33.9315 44 34.3046 43.6269 34.3046 43.1667V32.1315C35.3322 33.163 36.7539 33.8005 38.3242 33.8005C41.4591 33.8005 44 31.257 44 28.1191C44 24.9811 41.459 22.4378 38.3242 22.4378C36.7539 22.4378 35.3322 23.0753 34.3046 24.1068V14.499C34.3046 14.0387 33.9315 13.6656 33.4712 13.6656H23.7727C24.7803 12.6402 25.4008 11.2333 25.4008 9.68137C25.4008 6.54347 22.8598 4 19.725 4Z"/>
</mask>
<path d="M19.725 4C16.5902 4 14.0493 6.5435 14.0493 9.6814C14.0493 11.2331 14.6701 12.6403 15.6773 13.6657H4.83343C4.37319 13.6657 4.00009 14.0388 4.00009 14.499V20.8969C4.00009 21.6688 5.06419 22.1144 5.75399 21.768C6.51861 21.3841 7.38174 21.1678 8.29483 21.1678C11.4296 21.1678 13.9706 23.7112 13.9706 26.8491C13.9706 29.987 11.4296 32.5304 8.2948 32.5304C7.3817 32.5304 6.51856 32.3141 5.75392 31.9301C5.06413 31.5838 4.00006 32.0294 4.00006 32.8013V44H13.8974C14.6844 44 15.1376 42.8797 14.7749 42.1812C14.3686 41.3985 14.139 40.5093 14.139 39.5661C14.139 36.4281 16.68 33.8848 19.8148 33.8848C22.9496 33.8848 25.4905 36.4283 25.4905 39.5661C25.4905 40.5093 25.2609 41.3986 24.8545 42.1813C24.4919 42.8798 24.9449 44 25.7319 44H33.4712C33.9315 44 34.3046 43.6269 34.3046 43.1667V32.1315C35.3322 33.163 36.7539 33.8005 38.3242 33.8005C41.4591 33.8005 44 31.257 44 28.1191C44 24.9811 41.459 22.4378 38.3242 22.4378C36.7539 22.4378 35.3322 23.0753 34.3046 24.1068V14.499C34.3046 14.0387 33.9315 13.6656 33.4712 13.6656H23.7727C24.7803 12.6402 25.4008 11.2333 25.4008 9.68137C25.4008 6.54347 22.8598 4 19.725 4Z" fill="#FF9E0F"/>
<path d="M15.6773 13.6657V17.8657H25.6907L18.6735 10.7224L15.6773 13.6657ZM4.00006 44H-0.199938V48.2H4.00006V44ZM34.3046 32.1315L37.28 29.1673L30.1046 21.9646V32.1315H34.3046ZM34.3046 24.1068H30.1046V34.2737L37.28 27.071L34.3046 24.1068ZM23.7727 13.6656L20.7769 10.7219L13.7575 17.8656H23.7727V13.6656ZM25.4008 9.68137H21.2008H25.4008ZM14.7749 42.1812L11.0473 44.1164L14.7749 42.1812ZM24.8545 42.1813L28.582 44.1167L24.8545 42.1813ZM19.725 -0.199999C14.2667 -0.199999 9.84926 4.22785 9.84926 9.6814H18.2493C18.2493 8.85915 18.9137 8.2 19.725 8.2V-0.199999ZM9.84926 9.6814C9.84926 12.3756 10.932 14.8283 12.6812 16.609L18.6735 10.7224C18.4082 10.4523 18.2493 10.0906 18.2493 9.6814H9.84926ZM15.6773 9.46567H4.83343V17.8657H15.6773V9.46567ZM-0.199905 14.499V20.8969H8.20009V14.499H-0.199905ZM7.63868 25.5214C7.83279 25.424 8.05205 25.3678 8.29483 25.3678V16.9678C6.71142 16.9678 5.20442 17.3442 3.86929 18.0147L7.63868 25.5214ZM8.29483 25.3678C9.10615 25.3678 9.7706 26.0269 9.7706 26.8491H18.1706C18.1706 21.3955 13.7531 16.9678 8.29483 16.9678V25.3678ZM9.7706 26.8491C9.7706 27.6713 9.10618 28.3304 8.2948 28.3304V36.7304C13.7531 36.7304 18.1706 32.3027 18.1706 26.8491H9.7706ZM8.2948 28.3304C8.05201 28.3304 7.83274 28.2742 7.63862 28.1768L3.86922 35.6835C5.20437 36.354 6.71139 36.7304 8.2948 36.7304V28.3304ZM-0.199938 32.8013V44H8.20006V32.8013H-0.199938ZM4.00006 48.2H13.8974V39.8H4.00006V48.2ZM18.5025 40.2459C18.3993 40.0472 18.339 39.8201 18.339 39.5661H9.939C9.939 41.1985 10.3379 42.7499 11.0473 44.1164L18.5025 40.2459ZM18.339 39.5661C18.339 38.7439 19.0034 38.0848 19.8148 38.0848V29.6848C14.3565 29.6848 9.939 34.1124 9.939 39.5661H18.339ZM19.8148 38.0848C20.6261 38.0848 21.2905 38.7439 21.2905 39.5661H29.6905C29.6905 34.1126 25.2731 29.6848 19.8148 29.6848V38.0848ZM21.2905 39.5661C21.2905 39.8201 21.2302 40.0471 21.127 40.2459L28.582 44.1167C29.2916 42.7501 29.6905 41.1986 29.6905 39.5661H21.2905ZM25.7319 48.2H33.4712V39.8H25.7319V48.2ZM38.5046 43.1667V32.1315H30.1046V43.1667H38.5046ZM31.3291 35.0957C33.1134 36.8868 35.5935 38.0005 38.3242 38.0005V29.6005C37.9143 29.6005 37.5509 29.4392 37.28 29.1673L31.3291 35.0957ZM38.3242 38.0005C43.7826 38.0005 48.2 33.5727 48.2 28.1191H39.8C39.8 28.9413 39.1355 29.6005 38.3242 29.6005V38.0005ZM48.2 28.1191C48.2 22.6654 43.7824 18.2378 38.3242 18.2378V26.6378C39.1356 26.6378 39.8 27.2969 39.8 28.1191H48.2ZM38.3242 18.2378C35.5936 18.2378 33.1134 19.3515 31.3291 21.1425L37.28 27.071C37.5509 26.7991 37.9143 26.6378 38.3242 26.6378V18.2378ZM38.5046 24.1068V14.499H30.1046V24.1068H38.5046ZM33.4712 9.46563H23.7727V17.8656H33.4712V9.46563ZM26.7685 16.6093C28.5187 14.8282 29.6008 12.3754 29.6008 9.68137H21.2008C21.2008 10.0911 21.042 10.4522 20.7769 10.7219L26.7685 16.6093ZM29.6008 9.68137C29.6008 4.22774 25.1833 -0.199999 19.725 -0.199999V8.2C20.5364 8.2 21.2008 8.85919 21.2008 9.68137L29.6008 9.68137ZM38.5046 14.499C38.5046 11.7191 36.2511 9.46563 33.4712 9.46563V17.8656C31.6119 17.8656 30.1046 16.3583 30.1046 14.499H38.5046ZM13.8974 48.2C16.5166 48.2 18.0218 46.3475 18.5935 45.0847C19.1686 43.8142 19.4014 41.9773 18.5025 40.2459L11.0473 44.1164C10.5111 43.0835 10.6986 42.1561 10.9411 41.6203C11.1802 41.0923 12.0653 39.8 13.8974 39.8V48.2ZM4.83343 9.46567C2.05359 9.46567 -0.199905 11.7192 -0.199905 14.499H8.20009C8.20009 16.3584 6.69279 17.8657 4.83343 17.8657V9.46567ZM21.127 40.2459C20.2281 41.9772 20.4607 43.8142 21.0359 45.0847C21.6077 46.3477 23.1129 48.2 25.7319 48.2V39.8C27.564 39.8 28.4491 41.0922 28.6883 41.6204C28.9309 42.1563 29.1183 43.0838 28.582 44.1167L21.127 40.2459ZM33.4712 48.2C36.2511 48.2 38.5046 45.9465 38.5046 43.1667H30.1046C30.1046 41.3073 31.6119 39.8 33.4712 39.8V48.2ZM-0.199905 20.8969C-0.199905 23.4387 1.55381 24.9558 2.84041 25.5569C4.1213 26.1554 5.93102 26.3789 7.63868 25.5214L3.86929 18.0147C4.88716 17.5036 5.81993 17.6774 6.39632 17.9467C6.97843 18.2187 8.20009 19.127 8.20009 20.8969H-0.199905ZM7.63862 28.1768C5.93097 27.3193 4.12126 27.5427 2.84035 28.1413C1.55373 28.7424 -0.199938 30.2595 -0.199938 32.8013H8.20006C8.20006 34.5711 6.97843 35.4795 6.39629 35.7515C5.81987 36.0208 4.88708 36.1946 3.86922 35.6835L7.63862 28.1768Z" fill="#FF9E0F" mask="url(#path-1-inside-1_72_1773)"/>
</svg>
