<svg width="40" height="40" viewBox="0 0 48 48" fill="none" xmlns="http://www.w3.org/2000/svg">
<path d="M41.3019 26.08H38.3913C38.1625 26.08 37.977 26.2655 37.977 26.4943V38.0114C37.977 38.8963 37.5912 40 35.9884 40H28.1342C28.0789 40 28.0342 39.9552 28.0342 39.9V28.4829C28.0342 28.2541 27.8487 28.0686 27.6199 28.0686H20.4942C20.2654 28.0686 20.0799 28.2541 20.0799 28.4829V39.9C20.0799 39.9552 20.0351 40 19.9799 40H12.1256C10.5229 40 10.1371 38.8963 10.1371 38.0114V26.4943C10.1371 26.2655 9.95159 26.08 9.72278 26.08H6.81219C5.62302 26.08 5.87756 25.4357 6.69287 24.5926L22.6491 8.62043C23.0369 8.21874 23.546 8.01989 24.057 8C24.5681 8.01989 25.0772 8.21675 25.4649 8.62043L41.4192 24.5906C42.2365 25.4357 42.491 26.08 41.3019 26.08Z" fill="#FF9E0F"/>
<path d="M6.69287 24.5926L5.52051 23.4214L5.51098 23.4309L5.5016 23.4407L6.69287 24.5926ZM22.6491 8.62043L23.8215 9.79162L23.8315 9.78158L23.8414 9.77137L22.6491 8.62043ZM24.057 8L24.1215 6.34411L24.057 6.34161L23.9926 6.34411L24.057 8ZM25.4649 8.62043L24.2699 9.76842L24.2811 9.78013L24.2926 9.79162L25.4649 8.62043ZM41.4192 24.5906L42.6104 23.4386L42.6011 23.4289L42.5916 23.4194L41.4192 24.5906ZM41.3019 24.4229H38.3913V27.7372H41.3019V24.4229ZM36.3199 26.4943V38.0114H39.6341V26.4943H36.3199ZM36.3199 38.0114C36.3199 38.1171 36.3078 38.2039 36.2912 38.2656C36.275 38.326 36.2609 38.3393 36.2694 38.3283C36.2838 38.3096 36.3019 38.2996 36.2972 38.3017C36.2856 38.3069 36.1992 38.3429 35.9884 38.3429V41.6571C37.2118 41.6571 38.2351 41.2103 38.8981 40.3468C39.5007 39.562 39.6341 38.6527 39.6341 38.0114H36.3199ZM35.9884 38.3429H28.1342V41.6571H35.9884V38.3429ZM29.6913 39.9V28.4829H26.377V39.9H29.6913ZM27.6199 26.4115H20.4942V29.7257H27.6199V26.4115ZM18.4228 28.4829V39.9H21.737V28.4829H18.4228ZM19.9799 38.3429H12.1256V41.6571H19.9799V38.3429ZM12.1256 38.3429C11.9149 38.3429 11.8285 38.3069 11.8168 38.3017C11.8122 38.2996 11.8303 38.3096 11.8447 38.3283C11.8531 38.3393 11.839 38.326 11.8228 38.2656C11.8062 38.2039 11.7942 38.1171 11.7942 38.0114H8.47993C8.47993 38.6527 8.61336 39.562 9.21594 40.3468C9.879 41.2103 10.9023 41.6571 12.1256 41.6571V38.3429ZM11.7942 38.0114V26.4943H8.47993V38.0114H11.7942ZM9.72278 24.4229H6.81219V27.7372H9.72278V24.4229ZM6.81219 24.4229C6.60281 24.4229 6.74441 24.3837 6.99049 24.5224C7.14303 24.6083 7.344 24.7688 7.49001 25.0352C7.6368 25.3029 7.66681 25.566 7.65467 25.7574C7.63492 26.0686 7.50641 26.2085 7.57694 26.1032C7.62043 26.0383 7.71515 25.9193 7.88415 25.7445L5.5016 23.4407C5.26294 23.6875 5.02009 23.9651 4.82372 24.2582C4.65438 24.5109 4.38368 24.9699 4.34704 25.5476C4.32644 25.8722 4.37932 26.2554 4.58374 26.6283C4.78739 26.9998 5.08077 27.2505 5.36393 27.41C5.87126 27.6958 6.42698 27.7372 6.81219 27.7372V24.4229ZM7.86523 25.7638L23.8215 9.79162L21.4768 7.44924L5.52051 23.4214L7.86523 25.7638ZM23.8414 9.77137C23.9047 9.70573 23.9959 9.66077 24.1215 9.65589L23.9926 6.34411C23.096 6.379 22.1691 6.73176 21.4569 7.4695L23.8414 9.77137ZM23.9926 9.65589C24.122 9.66092 24.21 9.70609 24.2699 9.76842L26.66 7.47244C25.9444 6.72741 25.0142 6.37885 24.1215 6.34411L23.9926 9.65589ZM24.2926 9.79162L40.2468 25.7618L42.5916 23.4194L26.6373 7.44924L24.2926 9.79162ZM40.228 25.7426C40.3976 25.918 40.4928 26.0375 40.5366 26.1029C40.6075 26.2086 40.4792 26.0693 40.4592 25.7586C40.4469 25.5674 40.4766 25.3043 40.6233 25.0362C40.7693 24.7695 40.9704 24.6087 41.1231 24.5225C41.3695 24.3837 41.5114 24.4229 41.3019 24.4229V27.7372C41.687 27.7372 42.243 27.6958 42.7505 27.4098C43.0339 27.2501 43.3273 26.999 43.5308 26.627C43.7351 26.2537 43.7876 25.8704 43.7667 25.5459C43.7296 24.9685 43.4587 24.5096 43.2892 24.2569C43.0926 23.9637 42.8495 23.6858 42.6104 23.4386L40.228 25.7426ZM11.7942 26.4943C11.7942 25.3503 10.8668 24.4229 9.72278 24.4229V27.7372C9.03638 27.7372 8.47993 27.1807 8.47993 26.4943H11.7942ZM18.4228 39.9C18.4228 39.04 19.1199 38.3429 19.9799 38.3429V41.6571C20.9504 41.6571 21.737 40.8704 21.737 39.9H18.4228ZM29.6913 28.4829C29.6913 27.3389 28.7639 26.4115 27.6199 26.4115V29.7257C26.9335 29.7257 26.377 29.1693 26.377 28.4829H29.6913ZM28.1342 38.3429C28.9941 38.3429 29.6913 39.04 29.6913 39.9H26.377C26.377 40.8704 27.1637 41.6571 28.1342 41.6571V38.3429ZM20.4942 26.4115C19.3502 26.4115 18.4228 27.3389 18.4228 28.4829H21.737C21.737 29.1693 21.1806 29.7257 20.4942 29.7257V26.4115ZM38.3913 24.4229C37.2473 24.4229 36.3199 25.3503 36.3199 26.4943H39.6341C39.6341 27.1807 39.0777 27.7372 38.3913 27.7372V24.4229Z" fill="#FF9E0F"/>
</svg>
