<svg width="40" height="40" viewBox="0 0 48 48" fill="none" xmlns="http://www.w3.org/2000/svg">
<path fill-rule="evenodd" clip-rule="evenodd" d="M22.5366 37.6482V31.7945H25.4634V37.6482H30.3415C31.1497 37.6482 31.8049 38.3034 31.8049 39.1116C31.8049 39.9198 31.1497 40.575 30.3415 40.575H17.6586C16.8503 40.575 16.1951 39.9198 16.1951 39.1116C16.1951 38.3034 16.8503 37.6482 17.6586 37.6482H22.5366Z" fill="#FF9E0F"/>
<path fill-rule="evenodd" clip-rule="evenodd" d="M37.6585 11.3066H40.5854C40.8548 11.3066 41.0732 11.525 41.0732 11.7944V15.6969H44V11.7944C44 9.90858 42.4712 8.37979 40.5854 8.37979H37.6585V11.3066ZM41.0732 15.6969C41.0732 17.5827 39.5444 19.1115 37.6585 19.1115V22.0384C41.1608 22.0384 44 19.1992 44 15.6969H41.0732Z" fill="#FF9E0F"/>
<path fill-rule="evenodd" clip-rule="evenodd" d="M10.3415 11.3066H7.41464C7.14523 11.3066 6.92684 11.525 6.92684 11.7944V15.6969H4V11.7944C4 9.90858 5.52879 8.37979 7.41464 8.37979H10.3415V11.3066ZM6.92684 15.6969C6.92684 17.5827 8.45562 19.1115 10.3415 19.1115V22.0384C6.83918 22.0384 4 19.1992 4 15.6969H6.92684Z" fill="#FF9E0F"/>
<path d="M11.1219 9.03485C11.1219 7.91103 12.033 7 13.1568 7H34.5227C35.6465 7 36.5575 7.91103 36.5575 9.03485V18.7004C36.5575 25.7242 30.8636 31.4182 23.8397 31.4182V31.4182C16.8159 31.4182 11.1219 25.7242 11.1219 18.7004V9.03485Z" fill="#FF9E0F"/>
<path d="M13.1568 8.52614H34.5227V5.47386H13.1568V8.52614ZM35.0314 9.03485V18.7004H38.0837V9.03485H35.0314ZM12.6481 18.7004V9.03485H9.5958V18.7004H12.6481ZM23.8397 29.892C17.6587 29.892 12.6481 24.8813 12.6481 18.7004H9.5958C9.5958 26.5671 15.973 32.9443 23.8397 32.9443V29.892ZM35.0314 18.7004C35.0314 24.8813 30.0207 29.892 23.8397 29.892V32.9443C31.7064 32.9443 38.0837 26.5671 38.0837 18.7004H35.0314ZM34.5227 8.52614C34.8036 8.52614 35.0314 8.75389 35.0314 9.03485H38.0837C38.0837 7.06817 36.4894 5.47386 34.5227 5.47386V8.52614ZM13.1568 5.47386C11.1901 5.47386 9.5958 7.06817 9.5958 9.03485H12.6481C12.6481 8.75389 12.8758 8.52614 13.1568 8.52614V5.47386Z" fill="#FF9E0F"/>
</svg>
