<svg width="40" height="40" viewBox="0 0 48 48" fill="none" xmlns="http://www.w3.org/2000/svg">
<path d="M6 12C6 10.8954 6.89543 10 8 10H20C22.2091 10 24 11.7909 24 14V31C24 33.2091 22.2091 35 20 35H8C6.89543 35 6 34.1046 6 33V12Z" fill="#FF9E0F"/>
<path d="M8 11.5H20V8.5H8V11.5ZM22.5 14V31H25.5V14H22.5ZM20 33.5H8V36.5H20V33.5ZM7.5 33V12H4.5V33H7.5ZM8 33.5C7.72386 33.5 7.5 33.2761 7.5 33H4.5C4.5 34.933 6.067 36.5 8 36.5V33.5ZM22.5 31C22.5 32.3807 21.3807 33.5 20 33.5V36.5C23.0376 36.5 25.5 34.0376 25.5 31H22.5ZM20 11.5C21.3807 11.5 22.5 12.6193 22.5 14H25.5C25.5 10.9624 23.0376 8.5 20 8.5V11.5ZM8 8.5C6.067 8.5 4.5 10.067 4.5 12H7.5C7.5 11.7239 7.72386 11.5 8 11.5V8.5Z" fill="#FF9E0F"/>
<path d="M24 14C24 11.7909 25.7909 10 28 10H40C41.1046 10 42 10.8954 42 12V33C42 34.1046 41.1046 35 40 35H28C25.7909 35 24 33.2091 24 31V14Z" fill="#FF9E0F"/>
<path d="M28 11.5H40V8.5H28V11.5ZM40.5 12V33H43.5V12H40.5ZM40 33.5H28V36.5H40V33.5ZM25.5 31V14H22.5V31H25.5ZM28 33.5C26.6193 33.5 25.5 32.3807 25.5 31H22.5C22.5 34.0376 24.9624 36.5 28 36.5V33.5ZM40.5 33C40.5 33.2761 40.2761 33.5 40 33.5V36.5C41.933 36.5 43.5 34.933 43.5 33H40.5ZM40 11.5C40.2761 11.5 40.5 11.7239 40.5 12H43.5C43.5 10.067 41.933 8.5 40 8.5V11.5ZM28 8.5C24.9624 8.5 22.5 10.9624 22.5 14H25.5C25.5 12.6193 26.6193 11.5 28 11.5V8.5Z" fill="#FF9E0F"/>
<path d="M24 11.5C24.8284 11.5 25.5 12.1716 25.5 13V37.2193C25.5 38.0477 24.8284 38.7193 24 38.7193C23.1716 38.7193 22.5 38.0477 22.5 37.2193V13C22.5 12.1716 23.1716 11.5 24 11.5Z" fill="#FF9E0F"/>
<path fill-rule="evenodd" clip-rule="evenodd" d="M11.5 17C11.5 16.1716 12.1716 15.5 13 15.5H17C17.8284 15.5 18.5 16.1716 18.5 17C18.5 17.8284 17.8284 18.5 17 18.5H13C12.1716 18.5 11.5 17.8284 11.5 17ZM29.5 17C29.5 16.1716 30.1716 15.5 31 15.5H35C35.8284 15.5 36.5 16.1716 36.5 17C36.5 17.8284 35.8284 18.5 35 18.5H31C30.1716 18.5 29.5 17.8284 29.5 17ZM11.5 22.5C11.5 21.6716 12.1716 21 13 21H17C17.8284 21 18.5 21.6716 18.5 22.5C18.5 23.3284 17.8284 24 17 24H13C12.1716 24 11.5 23.3284 11.5 22.5ZM29.5 22.5C29.5 21.6716 30.1716 21 31 21H35C35.8284 21 36.5 21.6716 36.5 22.5C36.5 23.3284 35.8284 24 35 24H31C30.1716 24 29.5 23.3284 29.5 22.5ZM11.5 28C11.5 27.1716 12.1716 26.5 13 26.5H17C17.8284 26.5 18.5 27.1716 18.5 28C18.5 28.8284 17.8284 29.5 17 29.5H13C12.1716 29.5 11.5 28.8284 11.5 28ZM29.5 28C29.5 27.1716 30.1716 26.5 31 26.5H35C35.8284 26.5 36.5 27.1716 36.5 28C36.5 28.8284 35.8284 29.5 35 29.5H31C30.1716 29.5 29.5 28.8284 29.5 28Z" fill="white"/>
</svg>
